<svg xmlns="http://www.w3.org/2000/svg" xmlns:xlink="http://www.w3.org/1999/xlink"><symbol id="icon-email" viewBox="0 0 26 20">
<path d="M24.2273 0H1.77273C0.768182 0 0 0.764706 0 1.76471V18.2353C0 19.2353 0.768182 20 1.77273 20H24.2273C25.2318 20 26 19.2353 26 18.2353V1.76471C26 0.764706 25.2318 0 24.2273 0ZM24.2273 17L19.5591 12.3529C19.2045 12 18.6727 12 18.3182 12.3529C17.9636 12.7059 17.9636 13.2353 18.3182 13.5882L22.9864 18.2353H3.01362L7.68182 13.5882C8.03636 13.2353 8.03636 12.7059 7.68182 12.3529C7.32727 12 6.79547 12 6.44092 12.3529L1.77273 17V5.70585L12.4091 13.7059C12.5864 13.8236 12.7636 13.8823 12.9409 13.8823C13.1182 13.8823 13.2954 13.8236 13.4727 13.7059L24.2273 5.70585V17ZM24.2273 1.76471V3.4706L12.9409 11.8235L1.77273 3.4706V1.76471H24.2273Z" fill="#D7D9DF"/>
</symbol><symbol id="icon-phone-footer" viewBox="0 0 17 24">
<path d="M1.39635 6.62432C1.31179 5.42623 1.57753 4.24606 2.28114 3.29684C2.89115 2.43632 3.68536 1.96636 4.64264 1.69172C5.44893 1.4525 5.9774 1.74561 6.20992 2.64204C6.54211 3.98224 7.01622 5.3225 7.18836 6.73361C7.24271 7.35485 6.84108 8.23322 6.40623 8.6856C5.31608 9.75888 5.54257 10.5399 6.37 12.1643C6.62669 12.6881 7.03436 13.5934 7.82858 14.7919C8.65601 15.9992 9.09389 16.6472 10.1569 16.0975C11.3376 15.5035 12.1983 15.8855 13.0891 16.8444C13.6931 17.5369 14.3574 18.1318 14.9614 18.8243C15.8341 19.8542 15.7949 20.5641 15.1124 21.2915C13.8833 22.6309 11.854 23.0736 10.3441 22.1766C9.51064 21.6881 8.68018 21.0487 8.01884 20.303C5.10471 16.9825 3.00291 13.1212 1.73759 8.76321C1.53526 8.02654 1.44165 7.28104 1.39635 6.62432Z" stroke="#D7D9DF" stroke-width="2" stroke-miterlimit="10"/>
</symbol><symbol id="icon-phone" viewBox="0 0 30 30">
<path d="M7.39635 8.62432C7.31179 7.42623 7.57753 6.24606 8.28114 5.29684C8.89115 4.43632 9.68536 3.96636 10.6426 3.69172C11.4489 3.4525 11.9774 3.74561 12.2099 4.64204C12.5421 5.98224 13.0162 7.3225 13.1884 8.73361C13.2427 9.35485 12.8411 10.2332 12.4062 10.6856C11.3161 11.7589 11.5426 12.5399 12.37 14.1643C12.6267 14.6881 13.0344 15.5934 13.8286 16.7919C14.656 17.9992 15.0939 18.6472 16.1569 18.0975C17.3376 17.5035 18.1983 17.8855 19.0891 18.8444C19.6931 19.5369 20.3574 20.1318 20.9614 20.8243C21.8341 21.8542 21.7949 22.5641 21.1124 23.2915C19.8833 24.6309 17.854 25.0736 16.3441 24.1766C15.5106 23.6881 14.6802 23.0487 14.0188 22.303C11.1047 18.9825 9.00291 15.1212 7.73759 10.7632C7.53526 10.0265 7.44165 9.28104 7.39635 8.62432Z" stroke="#FE8978" stroke-width="2" stroke-miterlimit="10"/>
</symbol><symbol id="icon-tick-black" viewBox="0 0 14 12">
<path fill-rule="evenodd" clip-rule="evenodd" d="M13.6138 0.210585C14.0498 0.549578 14.1285 1.17784 13.7895 1.61385L6.01453 11.6138C5.84138 11.8365 5.58223 11.9758 5.30094 11.9972C5.01966 12.0186 4.74242 11.9202 4.53757 11.7262L0.312502 7.72623C-0.0885582 7.34653 -0.105878 6.71361 0.273818 6.31255C0.653514 5.91149 1.28644 5.89417 1.6875 6.27386L5.11216 9.51608L12.2105 0.386246C12.5495 -0.0497617 13.1778 -0.128408 13.6138 0.210585Z" fill="#141517"/>
</symbol><symbol id="icon-tick-red" viewBox="0 0 14 12">
<path fill-rule="evenodd" clip-rule="evenodd" d="M13.6138 0.210585C14.0498 0.549578 14.1285 1.17784 13.7895 1.61385L6.01453 11.6138C5.84138 11.8365 5.58223 11.9758 5.30094 11.9972C5.01966 12.0186 4.74242 11.9202 4.53757 11.7262L0.312502 7.72623C-0.0885582 7.34653 -0.105878 6.71361 0.273818 6.31255C0.653514 5.91149 1.28644 5.89417 1.6875 6.27386L5.11216 9.51608L12.2105 0.386246C12.5495 -0.0497617 13.1778 -0.128408 13.6138 0.210585Z" fill="#FE7865"/>
</symbol></svg>